<svg width="253" height="101" viewBox="0 0 253 101" fill="none" xmlns="http://www.w3.org/2000/svg">
<rect width="58" height="58" fill="#066FD1"/>
<rect x="8.41421" y="28.9203" width="29" height="29" rx="3" transform="rotate(-45 8.41421 28.9203)" fill="black" fill-opacity="0.7" stroke="white" stroke-width="2"/>
<rect width="158" height="58" transform="translate(60)" fill="#066FD1"/>
<path d="M85.5625 40.375C80.6875 40.375 77.3906 37.9844 77.1094 34.125L77.0938 33.9062H79.9062L79.9375 34.125C80.2656 36.3906 82.4531 37.7812 85.7188 37.7812C88.9688 37.7812 91.0156 36.3125 91.0156 33.9844V33.9688C91.0156 31.9844 89.7188 30.875 86.625 30.1875L84.125 29.6406C79.7188 28.6719 77.6562 26.6875 77.6562 23.3906V23.375C77.6719 19.6719 80.9531 17.0781 85.5938 17.0781C90 17.0781 93.2188 19.625 93.4688 23.3125L93.4844 23.5469H90.6719L90.6406 23.3281C90.2969 21.0312 88.375 19.6719 85.5156 19.6719C82.5 19.6875 80.5312 21.125 80.5312 23.2969V23.3125C80.5312 25.1562 81.8906 26.3125 84.8281 26.9531L87.3281 27.5C91.9531 28.5156 93.8906 30.3906 93.8906 33.8281V33.8438C93.8906 37.8438 90.7188 40.375 85.5625 40.375ZM96.7656 40V23.75H99.4844V26.0625H99.5469C100.422 24.5469 102.078 23.4375 104.547 23.4375C108.109 23.4375 110.172 25.75 110.172 29.4531V40H107.453V29.9375C107.453 27.2969 106.219 25.8438 103.719 25.8438C101.156 25.8438 99.4844 27.6719 99.4844 30.4375V40H96.7656ZM120.375 40.3125C115.859 40.3125 112.844 37.0469 112.844 31.875V31.8438C112.844 26.6719 115.875 23.4375 120.359 23.4375C124.844 23.4375 127.891 26.6562 127.891 31.8438V31.875C127.891 37.0625 124.859 40.3125 120.375 40.3125ZM120.391 37.9062C123.25 37.9062 125.109 35.6875 125.109 31.875V31.8438C125.109 28.0312 123.234 25.8438 120.359 25.8438C117.531 25.8438 115.625 28.0469 115.625 31.8438V31.875C115.625 35.7031 117.516 37.9062 120.391 37.9062ZM133.859 40L129.312 23.75H132.016L135.266 36.9688H135.328L139 23.75H141.625L145.312 36.9688H145.375L148.625 23.75H151.312L146.781 40H144.016L140.344 27.4219H140.281L136.625 40H133.859ZM160.281 40.3125C155.672 40.3125 152.75 37.0312 152.75 31.8594V31.8438C152.75 26.7188 155.734 23.4375 160.25 23.4375C164.297 23.4375 166.688 26.125 167.031 28.9062L167.047 29.0312H164.391L164.359 28.9062C163.953 27.2812 162.641 25.8438 160.25 25.8438C157.422 25.8438 155.531 28.1875 155.531 31.875V31.8906C155.531 35.6719 157.469 37.9062 160.281 37.9062C162.5 37.9062 163.922 36.6562 164.375 34.8438L164.406 34.7188H167.078L167.062 34.8281C166.625 37.9219 163.953 40.3125 160.281 40.3125ZM174.328 40.3125C171.094 40.3125 168.922 38.3594 168.922 35.4062V35.375C168.922 32.6094 171.078 30.875 174.812 30.6562L179.469 30.3906V29.0312C179.469 27.0469 178.172 25.8438 175.906 25.8438C173.812 25.8438 172.5 26.8438 172.188 28.2969L172.156 28.4375H169.531L169.547 28.2656C169.781 25.5938 172.109 23.4375 175.938 23.4375C179.781 23.4375 182.188 25.5156 182.188 28.7656V40H179.469V37.3594H179.406C178.453 39.1406 176.5 40.3125 174.328 40.3125ZM171.703 35.4062C171.703 36.9688 172.984 37.9531 174.938 37.9531C177.5 37.9531 179.469 36.1875 179.469 33.8281V32.5L175.125 32.7656C172.953 32.8906 171.703 33.8594 171.703 35.375V35.4062ZM185.641 45.4688V23.75H188.359V26.5H188.422C189.438 24.6094 191.25 23.4375 193.578 23.4375C197.734 23.4375 200.484 26.75 200.484 31.875V31.8906C200.484 37.0156 197.703 40.3125 193.625 40.3125C191.328 40.3125 189.438 39.1562 188.422 37.2812H188.359V45.4688H185.641ZM193.047 37.9062C195.922 37.9062 197.703 35.5938 197.703 31.8906V31.875C197.703 28.1406 195.922 25.8438 193.047 25.8438C190.297 25.8438 188.344 28.2344 188.344 31.875V31.8906C188.344 35.5156 190.312 37.9062 193.047 37.9062Z" fill="white"/>
<rect width="253" height="41" transform="translate(0 60)" fill="#066FD1"/>
<path d="M13.1719 89.2812C9.51562 89.2812 7.04297 87.4883 6.83203 84.5938L6.82031 84.4297H8.92969L8.95312 84.5938C9.19922 86.293 10.8398 87.3359 13.2891 87.3359C15.7266 87.3359 17.2617 86.2344 17.2617 84.4883V84.4766C17.2617 82.9883 16.2891 82.1562 13.9688 81.6406L12.0938 81.2305C8.78906 80.5039 7.24219 79.0156 7.24219 76.543V76.5312C7.25391 73.7539 9.71484 71.8086 13.1953 71.8086C16.5 71.8086 18.9141 73.7188 19.1016 76.4844L19.1133 76.6602H17.0039L16.9805 76.4961C16.7227 74.7734 15.2812 73.7539 13.1367 73.7539C10.875 73.7656 9.39844 74.8438 9.39844 76.4727V76.4844C9.39844 77.8672 10.418 78.7344 12.6211 79.2148L14.4961 79.625C17.9648 80.3867 19.418 81.793 19.418 84.3711V84.3828C19.418 87.3828 17.0391 89.2812 13.1719 89.2812ZM21.7383 89V72.0898H23.7773V82.1914H23.8242L29.168 76.8125H31.6406L26.3555 82.0742L31.8047 89H29.4375L24.9141 83.3164L23.7773 84.4062V89H21.7383ZM34.3711 74.75C33.668 74.75 33.0938 74.1758 33.0938 73.4727C33.0938 72.7578 33.668 72.1953 34.3711 72.1953C35.0859 72.1953 35.6484 72.7578 35.6484 73.4727C35.6484 74.1758 35.0859 74.75 34.3711 74.75ZM33.3516 89V76.8125H35.3906V89H33.3516ZM47.4141 89.2344C44.543 89.2344 42.8086 87.7695 42.5625 85.5898L42.5508 85.4844H44.5898L44.6133 85.6016C44.8594 86.8203 45.7617 87.5352 47.4258 87.5352C49.0781 87.5352 50.0625 86.8438 50.0625 85.7422V85.7305C50.0625 84.8516 49.6055 84.3594 48.2227 84.0195L46.2891 83.5508C43.9922 83 42.8789 81.9336 42.8789 80.1758V80.1641C42.8789 78.0664 44.7188 76.5781 47.3555 76.5781C50.0273 76.5781 51.7266 78.1367 51.8789 80.1758L51.8906 80.3281H49.9453L49.9336 80.2461C49.7695 79.0625 48.8672 78.2773 47.3555 78.2773C45.8789 78.2773 44.9648 78.9922 44.9648 80.0703V80.082C44.9648 80.9141 45.5156 81.4883 46.8633 81.8164L48.7969 82.2852C51.2578 82.8828 52.1484 83.8555 52.1484 85.5898V85.6016C52.1484 87.7344 50.1328 89.2344 47.4141 89.2344ZM59.3203 89.2344C55.8633 89.2344 53.6719 86.7734 53.6719 82.8945V82.8828C53.6719 79.0391 55.9102 76.5781 59.2969 76.5781C62.332 76.5781 64.125 78.5938 64.3828 80.6797L64.3945 80.7734H62.4023L62.3789 80.6797C62.0742 79.4609 61.0898 78.3828 59.2969 78.3828C57.1758 78.3828 55.7578 80.1406 55.7578 82.9062V82.918C55.7578 85.7539 57.2109 87.4297 59.3203 87.4297C60.9844 87.4297 62.0508 86.4922 62.3906 85.1328L62.4141 85.0391H64.418L64.4062 85.1211C64.0781 87.4414 62.0742 89.2344 59.3203 89.2344ZM66.3984 89V72.0898H68.4375V78.7578H68.4844C69.1406 77.3867 70.4648 76.5781 72.2812 76.5781C74.8711 76.5781 76.6406 78.582 76.6406 81.5352V89H74.6016V81.8867C74.6016 79.6836 73.4766 78.3828 71.5781 78.3828C69.6914 78.3828 68.4375 79.8125 68.4375 81.8867V89H66.3984ZM84.2812 89.2344C80.8945 89.2344 78.6328 86.7852 78.6328 82.9062V82.8828C78.6328 79.0039 80.9062 76.5781 84.2695 76.5781C87.6328 76.5781 89.918 78.9922 89.918 82.8828V82.9062C89.918 86.7969 87.6445 89.2344 84.2812 89.2344ZM84.293 87.4297C86.4375 87.4297 87.832 85.7656 87.832 82.9062V82.8828C87.832 80.0234 86.4258 78.3828 84.2695 78.3828C82.1484 78.3828 80.7188 80.0352 80.7188 82.8828V82.9062C80.7188 85.7773 82.1367 87.4297 84.293 87.4297ZM97.0312 89.2344C93.6445 89.2344 91.3828 86.7852 91.3828 82.9062V82.8828C91.3828 79.0039 93.6562 76.5781 97.0195 76.5781C100.383 76.5781 102.668 78.9922 102.668 82.8828V82.9062C102.668 86.7969 100.395 89.2344 97.0312 89.2344ZM97.043 87.4297C99.1875 87.4297 100.582 85.7656 100.582 82.9062V82.8828C100.582 80.0234 99.1758 78.3828 97.0195 78.3828C94.8984 78.3828 93.4688 80.0352 93.4688 82.8828V82.9062C93.4688 85.7773 94.8867 87.4297 97.043 87.4297ZM104.836 89V72.0898H106.875V89H104.836ZM114.551 89V76.8125H116.59V78.5938H116.637C117.188 77.3867 118.406 76.5781 119.977 76.5781C121.641 76.5781 122.871 77.4336 123.398 78.9219H123.445C124.125 77.457 125.555 76.5781 127.266 76.5781C129.68 76.5781 131.238 78.1602 131.238 80.5859V89H129.199V81.0547C129.199 79.3789 128.273 78.3828 126.668 78.3828C125.051 78.3828 123.914 79.5898 123.914 81.2539V89H121.875V80.832C121.875 79.3555 120.891 78.3828 119.379 78.3828C117.762 78.3828 116.59 79.6602 116.59 81.3594V89H114.551ZM137.402 89.2344C134.977 89.2344 133.348 87.7695 133.348 85.5547V85.5312C133.348 83.457 134.965 82.1562 137.766 81.9922L141.258 81.793V80.7734C141.258 79.2852 140.285 78.3828 138.586 78.3828C137.016 78.3828 136.031 79.1328 135.797 80.2227L135.773 80.3281H133.805L133.816 80.1992C133.992 78.1953 135.738 76.5781 138.609 76.5781C141.492 76.5781 143.297 78.1367 143.297 80.5742V89H141.258V87.0195H141.211C140.496 88.3555 139.031 89.2344 137.402 89.2344ZM135.434 85.5547C135.434 86.7266 136.395 87.4648 137.859 87.4648C139.781 87.4648 141.258 86.1406 141.258 84.3711V83.375L138 83.5742C136.371 83.668 135.434 84.3945 135.434 85.5312V85.5547ZM145.887 89V76.8125H147.926V78.5469H147.973C148.629 77.4102 149.871 76.5781 151.723 76.5781C154.395 76.5781 155.941 78.3125 155.941 81.0898V89H153.902V81.4531C153.902 79.4727 152.977 78.3828 151.102 78.3828C149.18 78.3828 147.926 79.7539 147.926 81.8281V89H145.887ZM162.105 89.2344C159.68 89.2344 158.051 87.7695 158.051 85.5547V85.5312C158.051 83.457 159.668 82.1562 162.469 81.9922L165.961 81.793V80.7734C165.961 79.2852 164.988 78.3828 163.289 78.3828C161.719 78.3828 160.734 79.1328 160.5 80.2227L160.477 80.3281H158.508L158.52 80.1992C158.695 78.1953 160.441 76.5781 163.312 76.5781C166.195 76.5781 168 78.1367 168 80.5742V89H165.961V87.0195H165.914C165.199 88.3555 163.734 89.2344 162.105 89.2344ZM160.137 85.5547C160.137 86.7266 161.098 87.4648 162.562 87.4648C164.484 87.4648 165.961 86.1406 165.961 84.3711V83.375L162.703 83.5742C161.074 83.668 160.137 84.3945 160.137 85.5312V85.5547ZM175.746 93.3359C172.734 93.3359 170.836 91.918 170.438 90.1133L170.414 90.0078H172.465L172.512 90.1133C172.898 90.9922 174.059 91.5312 175.723 91.5312C177.867 91.5312 179.086 90.3477 179.086 88.4609V86.9023H179.039C178.312 88.25 176.906 89.1172 175.16 89.1172C172.09 89.1172 169.992 86.6445 169.992 82.8359V82.8242C169.992 79.0391 172.113 76.5781 175.207 76.5781C176.93 76.5781 178.289 77.5156 179.039 78.875H179.086V76.8125H181.125V88.6602C181.125 91.4844 179.051 93.3359 175.746 93.3359ZM175.605 87.3125C177.68 87.3125 179.086 85.543 179.086 82.8359V82.8242C179.086 80.1406 177.668 78.3828 175.605 78.3828C173.438 78.3828 172.078 80.1172 172.078 82.8242V82.8359C172.078 85.6016 173.438 87.3125 175.605 87.3125ZM188.777 89.2344C185.273 89.2344 183.164 86.7852 183.164 82.9531V82.9414C183.164 79.168 185.32 76.5781 188.648 76.5781C191.977 76.5781 194.004 79.0508 194.004 82.707V83.457H185.227C185.273 85.9648 186.656 87.4297 188.824 87.4297C190.371 87.4297 191.461 86.6562 191.812 85.6133L191.848 85.5078H193.852L193.828 85.625C193.43 87.6406 191.438 89.2344 188.777 89.2344ZM188.637 78.3828C186.867 78.3828 185.484 79.5898 185.262 81.8633H191.93C191.73 79.4961 190.418 78.3828 188.637 78.3828ZM196.066 89V76.8125H198.105V78.5938H198.152C198.703 77.3867 199.922 76.5781 201.492 76.5781C203.156 76.5781 204.387 77.4336 204.914 78.9219H204.961C205.641 77.457 207.07 76.5781 208.781 76.5781C211.195 76.5781 212.754 78.1602 212.754 80.5859V89H210.715V81.0547C210.715 79.3789 209.789 78.3828 208.184 78.3828C206.566 78.3828 205.43 79.5898 205.43 81.2539V89H203.391V80.832C203.391 79.3555 202.406 78.3828 200.895 78.3828C199.277 78.3828 198.105 79.6602 198.105 81.3594V89H196.066ZM220.371 89.2344C216.867 89.2344 214.758 86.7852 214.758 82.9531V82.9414C214.758 79.168 216.914 76.5781 220.242 76.5781C223.57 76.5781 225.598 79.0508 225.598 82.707V83.457H216.82C216.867 85.9648 218.25 87.4297 220.418 87.4297C221.965 87.4297 223.055 86.6562 223.406 85.6133L223.441 85.5078H225.445L225.422 85.625C225.023 87.6406 223.031 89.2344 220.371 89.2344ZM220.23 78.3828C218.461 78.3828 217.078 79.5898 216.855 81.8633H223.523C223.324 79.4961 222.012 78.3828 220.23 78.3828ZM227.66 89V76.8125H229.699V78.5469H229.746C230.402 77.4102 231.645 76.5781 233.496 76.5781C236.168 76.5781 237.715 78.3125 237.715 81.0898V89H235.676V81.4531C235.676 79.4727 234.75 78.3828 232.875 78.3828C230.953 78.3828 229.699 79.7539 229.699 81.8281V89H227.66ZM244.277 89.2344C242.039 89.2344 240.938 88.2266 240.938 85.8945V78.5H239.156V76.8125H240.938V73.5195H243.047V76.8125H245.367V78.5H243.047V85.8828C243.047 87.1836 243.621 87.5469 244.711 87.5469C244.957 87.5469 245.191 87.5117 245.367 87.5V89.1523C245.109 89.1875 244.676 89.2344 244.277 89.2344Z" fill="white"/>
</svg>
