<svg width="218" height="58" viewBox="0 0 218 58" fill="none" xmlns="http://www.w3.org/2000/svg">
<rect width="58" height="58" fill="#066FD1"/>
<rect x="8.41421" y="28.9203" width="29" height="29" rx="3" transform="rotate(-45 8.41421 28.9203)" fill="black" fill-opacity="0.7" stroke="white" stroke-width="2"/>
<rect width="158" height="58" transform="translate(60)" fill="#066FD1"/>
<path d="M85.5625 40.375C80.6875 40.375 77.3906 37.9844 77.1094 34.125L77.0938 33.9062H79.9062L79.9375 34.125C80.2656 36.3906 82.4531 37.7812 85.7188 37.7812C88.9688 37.7812 91.0156 36.3125 91.0156 33.9844V33.9688C91.0156 31.9844 89.7188 30.875 86.625 30.1875L84.125 29.6406C79.7188 28.6719 77.6562 26.6875 77.6562 23.3906V23.375C77.6719 19.6719 80.9531 17.0781 85.5938 17.0781C90 17.0781 93.2188 19.625 93.4688 23.3125L93.4844 23.5469H90.6719L90.6406 23.3281C90.2969 21.0312 88.375 19.6719 85.5156 19.6719C82.5 19.6875 80.5312 21.125 80.5312 23.2969V23.3125C80.5312 25.1562 81.8906 26.3125 84.8281 26.9531L87.3281 27.5C91.9531 28.5156 93.8906 30.3906 93.8906 33.8281V33.8438C93.8906 37.8438 90.7188 40.375 85.5625 40.375ZM96.7656 40V23.75H99.4844V26.0625H99.5469C100.422 24.5469 102.078 23.4375 104.547 23.4375C108.109 23.4375 110.172 25.75 110.172 29.4531V40H107.453V29.9375C107.453 27.2969 106.219 25.8438 103.719 25.8438C101.156 25.8438 99.4844 27.6719 99.4844 30.4375V40H96.7656ZM120.375 40.3125C115.859 40.3125 112.844 37.0469 112.844 31.875V31.8438C112.844 26.6719 115.875 23.4375 120.359 23.4375C124.844 23.4375 127.891 26.6562 127.891 31.8438V31.875C127.891 37.0625 124.859 40.3125 120.375 40.3125ZM120.391 37.9062C123.25 37.9062 125.109 35.6875 125.109 31.875V31.8438C125.109 28.0312 123.234 25.8438 120.359 25.8438C117.531 25.8438 115.625 28.0469 115.625 31.8438V31.875C115.625 35.7031 117.516 37.9062 120.391 37.9062ZM133.859 40L129.312 23.75H132.016L135.266 36.9688H135.328L139 23.75H141.625L145.312 36.9688H145.375L148.625 23.75H151.312L146.781 40H144.016L140.344 27.4219H140.281L136.625 40H133.859ZM160.281 40.3125C155.672 40.3125 152.75 37.0312 152.75 31.8594V31.8438C152.75 26.7188 155.734 23.4375 160.25 23.4375C164.297 23.4375 166.688 26.125 167.031 28.9062L167.047 29.0312H164.391L164.359 28.9062C163.953 27.2812 162.641 25.8438 160.25 25.8438C157.422 25.8438 155.531 28.1875 155.531 31.875V31.8906C155.531 35.6719 157.469 37.9062 160.281 37.9062C162.5 37.9062 163.922 36.6562 164.375 34.8438L164.406 34.7188H167.078L167.062 34.8281C166.625 37.9219 163.953 40.3125 160.281 40.3125ZM174.328 40.3125C171.094 40.3125 168.922 38.3594 168.922 35.4062V35.375C168.922 32.6094 171.078 30.875 174.812 30.6562L179.469 30.3906V29.0312C179.469 27.0469 178.172 25.8438 175.906 25.8438C173.812 25.8438 172.5 26.8438 172.188 28.2969L172.156 28.4375H169.531L169.547 28.2656C169.781 25.5938 172.109 23.4375 175.938 23.4375C179.781 23.4375 182.188 25.5156 182.188 28.7656V40H179.469V37.3594H179.406C178.453 39.1406 176.5 40.3125 174.328 40.3125ZM171.703 35.4062C171.703 36.9688 172.984 37.9531 174.938 37.9531C177.5 37.9531 179.469 36.1875 179.469 33.8281V32.5L175.125 32.7656C172.953 32.8906 171.703 33.8594 171.703 35.375V35.4062ZM185.641 45.4688V23.75H188.359V26.5H188.422C189.438 24.6094 191.25 23.4375 193.578 23.4375C197.734 23.4375 200.484 26.75 200.484 31.875V31.8906C200.484 37.0156 197.703 40.3125 193.625 40.3125C191.328 40.3125 189.438 39.1562 188.422 37.2812H188.359V45.4688H185.641ZM193.047 37.9062C195.922 37.9062 197.703 35.5938 197.703 31.8906V31.875C197.703 28.1406 195.922 25.8438 193.047 25.8438C190.297 25.8438 188.344 28.2344 188.344 31.875V31.8906C188.344 35.5156 190.312 37.9062 193.047 37.9062Z" fill="white"/>
</svg>
